<svg xmlns="http://www.w3.org/2000/svg" xmlns:xlink="http://www.w3.org/1999/xlink" width="20" height="20" viewBox="0 0 20 20"><defs><clipPath id="a"><rect width="20" height="20" fill="#fff"/></clipPath></defs><g clip-path="url(#a)"><path d="M5.754,8.344a.454.454,0,0,0-.641.641l4.543,4.543a.454.454,0,0,0,.642.007l.007-.007,7.578-7.951.65-.681,1.3-1.363a.454.454,0,1,0-.654-.622L18.016,4.123l-.632.663L9.97,12.56Z" fill="#ef7f1a"/><path d="M19.161,6.2h.009a.454.454,0,0,0-.745.454,9.086,9.086,0,1,1-1.9-2.949.454.454,0,0,0,.622-.659.457.457,0,0,0-.059-.036A9.972,9.972,0,1,0,19.27,6.395.455.455,0,0,0,19.161,6.2Z" fill="#ef7f1a"/></g></svg>